<svg width="483" height="338" viewBox="0 0 483 338" fill="none" xmlns="http://www.w3.org/2000/svg">
<rect x="39" width="405" height="240" rx="50" fill="#A1CFE7"/>
<g filter="url(#filter0_dddddd_86_56)">
<circle cx="105.232" cy="124.672" r="25.2324" fill="#46E0FE"/>
<circle opacity="0.7" cx="120.642" cy="102.328" r="25.2324" fill="#1F55D7"/>
<circle cx="139.903" cy="133.532" r="5.97102" fill="#FDCC02"/>
<path d="M162.98 130H176.15V114.127H192.737V104.25H176.15V95.6145H194.477V85.1777H162.98V130ZM204.789 92.6325C208.361 92.6325 211.095 89.868 211.095 86.5755C211.095 83.2829 208.361 80.5184 204.789 80.5184C201.217 80.5184 198.484 83.2829 198.484 86.5755C198.484 89.868 201.217 92.6325 204.789 92.6325ZM198.422 130H211.157V95.7077H198.422V130ZM215.94 130H228.676V110.742C228.676 107.542 230.509 105.213 233.522 105.213C236.721 105.213 238.336 107.325 238.336 110.773V130H251.071V107.977C251.071 99.7457 246.847 94.9622 239.299 94.9622C234.112 94.9622 230.602 97.4471 228.924 102.075H228.676V95.7077H215.94V130ZM256.414 130H288.035V119.563H269.584V112.45H286.886V102.759H269.584V95.6145H288.035V85.1777H256.414V130ZM303.535 130.435C307.946 130.435 311.145 128.602 313.071 125.341H313.32V130H326.055V106.673C326.055 99.7147 319.687 94.9622 310.151 94.9622C300.149 94.9622 294.216 99.5283 293.688 106.517L293.657 106.921H305.026L305.088 106.61C305.368 105.213 306.828 104.063 309.437 104.063C312.046 104.063 313.32 105.306 313.32 107.294V108.692L306.113 109.157C296.981 109.779 291.887 113.413 291.887 120.029V120.06C291.887 125.962 296.608 130.435 303.535 130.435ZM304.312 119.128V119.097C304.312 117.389 305.523 116.333 308.225 116.146L313.32 115.774V117.948C313.32 120.216 311.238 121.893 308.194 121.893C305.834 121.893 304.312 120.93 304.312 119.128ZM346.773 130.745C356.713 130.745 363.36 126.148 363.36 118.756V118.725C363.36 113.537 360.037 110.648 352.644 109.282L346.431 108.132C343.325 107.542 342.456 106.859 342.456 105.647V105.616C342.456 104.157 343.978 103.287 346.307 103.287C349.041 103.287 350.563 104.809 350.749 106.424L350.78 106.704H362.335V106.486C362.335 100.243 356.93 94.9622 346.307 94.9622C336.336 94.9622 330.279 99.2177 330.279 106.331V106.362C330.279 111.673 333.882 115.308 340.685 116.55L346.897 117.699C349.724 118.228 350.749 118.942 350.749 120.184V120.216C350.749 121.582 349.227 122.421 346.773 122.421C343.915 122.421 342.362 121.241 341.865 119.253L341.803 119.004H329.503L329.534 119.284C330.31 126.117 335.964 130.745 346.773 130.745ZM383.799 130.745C395.727 130.745 399.64 123.757 400.666 119.284L400.759 118.88H389.421L389.39 118.973C389.048 119.967 387.402 121.986 384.047 121.986C380.568 121.986 378.456 119.656 378.332 115.712H400.914V112.108C400.914 101.672 394.08 94.9622 383.395 94.9622C372.679 94.9622 365.907 101.672 365.907 112.823V112.854C365.907 124.005 372.679 130.745 383.799 130.745ZM383.737 103.722C386.501 103.722 388.427 105.461 388.986 108.505H378.487C379.046 105.461 380.972 103.722 383.737 103.722Z" fill="#0A0A5D"/>
<path d="M161.138 154H162.763V148.357H168.532V146.912H162.763V142.434H169.047V140.972H161.138V154ZM171.548 143.021C172.099 143.021 172.532 142.579 172.532 142.037C172.532 141.486 172.099 141.053 171.548 141.053C171.006 141.053 170.564 141.486 170.564 142.037C170.564 142.579 171.006 143.021 171.548 143.021ZM170.762 154H172.333V144.61H170.762V154ZM174.473 154H176.044V148.474C176.044 146.876 177.01 145.82 178.491 145.82C179.936 145.82 180.649 146.66 180.649 148.185V154H182.22V147.906C182.22 145.766 181.028 144.43 178.97 144.43C177.543 144.43 176.586 145.071 176.08 145.946H176.044V144.61H174.473V154ZM186.969 154.181C188.224 154.181 189.353 153.503 189.903 152.474H189.94V154H191.511V147.508C191.511 145.63 190.12 144.43 187.899 144.43C185.687 144.43 184.342 145.675 184.206 147.219L184.197 147.319H185.714L185.732 147.237C185.913 146.398 186.671 145.82 187.881 145.82C189.19 145.82 189.94 146.515 189.94 147.662V148.447L187.249 148.601C185.091 148.727 183.845 149.729 183.845 151.327V151.346C183.845 153.052 185.1 154.181 186.969 154.181ZM185.452 151.346V151.327C185.452 150.452 186.175 149.892 187.43 149.82L189.94 149.666V150.434C189.94 151.797 188.802 152.817 187.321 152.817C186.193 152.817 185.452 152.248 185.452 151.346ZM193.506 154H195.077V148.474C195.077 146.876 196.043 145.82 197.524 145.82C198.968 145.82 199.682 146.66 199.682 148.185V154H201.253V147.906C201.253 145.766 200.061 144.43 198.002 144.43C196.576 144.43 195.619 145.071 195.113 145.946H195.077V144.61H193.506V154ZM207.148 154.181C209.27 154.181 210.814 152.799 211.067 151.011L211.076 150.948H209.532L209.514 151.021C209.252 152.068 208.43 152.79 207.148 152.79C205.523 152.79 204.404 151.499 204.404 149.314V149.305C204.404 147.174 205.496 145.82 207.13 145.82C208.512 145.82 209.27 146.651 209.505 147.59L209.523 147.662H211.058L211.049 147.59C210.85 145.982 209.469 144.43 207.13 144.43C204.521 144.43 202.796 146.326 202.796 149.287V149.296C202.796 152.285 204.485 154.181 207.148 154.181ZM216.385 154.181C218.434 154.181 219.969 152.953 220.276 151.4L220.294 151.309H218.75L218.723 151.391C218.452 152.194 217.613 152.79 216.421 152.79C214.751 152.79 213.685 151.662 213.649 149.729H220.412V149.152C220.412 146.335 218.85 144.43 216.285 144.43C213.721 144.43 212.06 146.425 212.06 149.332V149.341C212.06 152.294 213.685 154.181 216.385 154.181ZM216.276 145.82C217.649 145.82 218.66 146.678 218.813 148.501H213.676C213.848 146.75 214.913 145.82 216.276 145.82ZM226.036 154H227.553V143.933H227.607L231.77 154H233.142L237.304 143.933H237.359V154H238.875V140.972H236.997L232.483 151.95H232.429L227.914 140.972H226.036V154ZM243.634 154.181C244.889 154.181 246.017 153.503 246.568 152.474H246.604V154H248.175V147.508C248.175 145.63 246.785 144.43 244.564 144.43C242.351 144.43 241.006 145.675 240.871 147.219L240.862 147.319H242.379L242.397 147.237C242.577 146.398 243.336 145.82 244.545 145.82C245.855 145.82 246.604 146.515 246.604 147.662V148.447L243.913 148.601C241.756 148.727 240.51 149.729 240.51 151.327V151.346C240.51 153.052 241.765 154.181 243.634 154.181ZM242.117 151.346V151.327C242.117 150.452 242.839 149.892 244.094 149.82L246.604 149.666V150.434C246.604 151.797 245.466 152.817 243.986 152.817C242.857 152.817 242.117 152.248 242.117 151.346ZM253.701 154.181C255.046 154.181 256.093 153.503 256.68 152.411H256.716V154H258.287V140.972H256.716V146.181H256.68C256.093 145.098 255.001 144.43 253.674 144.43C251.317 144.43 249.71 146.335 249.71 149.296V149.305C249.71 152.266 251.299 154.181 253.701 154.181ZM254.008 152.79C252.346 152.79 251.317 151.463 251.317 149.305V149.296C251.317 147.156 252.346 145.82 254.008 145.82C255.588 145.82 256.725 147.201 256.725 149.296V149.305C256.725 151.409 255.597 152.79 254.008 152.79ZM264.273 154.181C266.323 154.181 267.858 152.953 268.165 151.4L268.183 151.309H266.639L266.612 151.391C266.341 152.194 265.501 152.79 264.309 152.79C262.639 152.79 261.574 151.662 261.538 149.729H268.3V149.152C268.3 146.335 266.738 144.43 264.174 144.43C261.61 144.43 259.949 146.425 259.949 149.332V149.341C259.949 152.294 261.574 154.181 264.273 154.181ZM264.165 145.82C265.537 145.82 266.549 146.678 266.702 148.501H261.565C261.736 146.75 262.802 145.82 264.165 145.82ZM273.925 154H281.997V152.537H275.55V148.059H281.663V146.614H275.55V142.434H281.997V140.972H273.925V154ZM286.647 154.181C287.902 154.181 289.03 153.503 289.581 152.474H289.617V154H291.188V147.508C291.188 145.63 289.798 144.43 287.576 144.43C285.364 144.43 284.019 145.675 283.884 147.219L283.875 147.319H285.392L285.41 147.237C285.59 146.398 286.349 145.82 287.558 145.82C288.868 145.82 289.617 146.515 289.617 147.662V148.447L286.926 148.601C284.769 148.727 283.523 149.729 283.523 151.327V151.346C283.523 153.052 284.778 154.181 286.647 154.181ZM285.13 151.346V151.327C285.13 150.452 285.852 149.892 287.107 149.82L289.617 149.666V150.434C289.617 151.797 288.479 152.817 286.999 152.817C285.87 152.817 285.13 152.248 285.13 151.346ZM296.515 154.181C298.61 154.181 300.163 153.025 300.163 151.382V151.373C300.163 150.036 299.476 149.287 297.58 148.827L296.091 148.465C295.052 148.213 294.628 147.77 294.628 147.129V147.12C294.628 146.289 295.332 145.739 296.47 145.739C297.635 145.739 298.33 146.344 298.456 147.256L298.465 147.319H299.964L299.955 147.201C299.838 145.63 298.528 144.43 296.47 144.43C294.438 144.43 293.021 145.576 293.021 147.192V147.201C293.021 148.556 293.879 149.377 295.648 149.802L297.138 150.163C298.203 150.425 298.555 150.804 298.555 151.481V151.49C298.555 152.339 297.797 152.871 296.524 152.871C295.242 152.871 294.547 152.321 294.357 151.382L294.339 151.291H292.768L292.777 151.373C292.967 153.052 294.303 154.181 296.515 154.181ZM302.7 157.16C304.397 157.16 305.219 156.384 305.887 154.587L309.552 144.61H307.9L305.3 152.429H305.264L302.673 144.61H300.993L304.478 154.009L304.289 154.542C303.91 155.607 303.359 155.86 302.366 155.86C302.176 155.86 301.995 155.833 301.86 155.806V157.088C302.059 157.124 302.393 157.16 302.7 157.16Z" fill="#0A0A5D"/>
</g>
<path d="M151.221 208V206.088H155.327V192.871H152.065V191.381C152.89 191.231 153.602 191.053 154.202 190.847C154.821 190.622 155.374 190.359 155.861 190.059H157.633V206.088H161.345V208H151.221ZM164.103 208V206.622C165.902 204.822 167.43 203.248 168.686 201.898C169.942 200.529 170.898 199.301 171.554 198.214C172.21 197.108 172.539 196.077 172.539 195.121C172.539 194.09 172.257 193.246 171.695 192.59C171.133 191.934 170.28 191.606 169.136 191.606C168.386 191.606 167.693 191.822 167.055 192.253C166.418 192.665 165.837 193.171 165.312 193.771L163.99 192.45C164.74 191.625 165.537 190.969 166.38 190.481C167.243 189.975 168.255 189.722 169.417 189.722C171.086 189.722 172.398 190.209 173.354 191.184C174.31 192.14 174.788 193.415 174.788 195.008C174.788 196.133 174.469 197.277 173.832 198.439C173.213 199.583 172.351 200.792 171.245 202.067C170.158 203.323 168.902 204.691 167.477 206.172C167.964 206.135 168.471 206.097 168.995 206.06C169.52 206.022 170.017 206.003 170.486 206.003H175.688V208H164.103ZM179.88 201.195H185.504V195.993C185.504 195.505 185.523 194.924 185.56 194.249C185.598 193.574 185.626 193.003 185.645 192.534H185.532C185.307 192.965 185.073 193.387 184.829 193.799C184.585 194.212 184.332 194.634 184.07 195.065L179.88 201.195ZM185.504 208V203.051H177.433V201.532L185.11 190.059H187.697V201.195H190.144V203.051H187.697V208H185.504ZM197.513 208.337C196.088 208.337 194.907 208.084 193.97 207.578C193.033 207.072 192.255 206.51 191.636 205.891L192.761 204.372C193.305 204.897 193.933 205.375 194.645 205.807C195.357 206.219 196.238 206.425 197.288 206.425C198.394 206.425 199.322 206.06 200.072 205.329C200.841 204.579 201.225 203.576 201.225 202.32C201.225 201.082 200.878 200.117 200.185 199.423C199.491 198.73 198.563 198.383 197.401 198.383C196.782 198.383 196.248 198.477 195.798 198.664C195.367 198.852 194.879 199.123 194.336 199.48L193.098 198.692L193.689 190.059H202.659V192.056H195.714L195.235 197.371C195.667 197.146 196.098 196.968 196.529 196.836C196.96 196.705 197.448 196.639 197.991 196.639C199.022 196.639 199.95 196.846 200.775 197.258C201.619 197.652 202.294 198.261 202.8 199.086C203.306 199.911 203.559 200.97 203.559 202.263C203.559 203.557 203.268 204.663 202.687 205.582C202.125 206.482 201.384 207.166 200.466 207.634C199.547 208.103 198.563 208.337 197.513 208.337ZM212.25 198.777C211.669 198.777 211.041 198.964 210.366 199.339C209.691 199.714 209.073 200.314 208.51 201.139C208.66 202.882 209.063 204.213 209.719 205.132C210.394 206.05 211.303 206.51 212.447 206.51C213.328 206.51 214.069 206.153 214.669 205.441C215.268 204.71 215.568 203.754 215.568 202.573C215.568 201.411 215.287 200.492 214.725 199.817C214.181 199.123 213.356 198.777 212.25 198.777ZM212.447 208.337C211.285 208.337 210.235 208.019 209.298 207.381C208.36 206.744 207.62 205.788 207.076 204.513C206.532 203.22 206.261 201.617 206.261 199.705C206.261 197.305 206.579 195.374 207.217 193.912C207.873 192.45 208.716 191.39 209.747 190.734C210.797 190.059 211.913 189.722 213.094 189.722C214.069 189.722 214.903 189.909 215.596 190.284C216.309 190.64 216.918 191.09 217.424 191.634L216.131 193.068C215.775 192.637 215.334 192.3 214.809 192.056C214.284 191.793 213.741 191.662 213.178 191.662C212.335 191.662 211.566 191.906 210.872 192.393C210.179 192.862 209.607 193.659 209.157 194.784C208.726 195.89 208.491 197.389 208.454 199.283C209.016 198.589 209.672 198.045 210.422 197.652C211.172 197.239 211.913 197.033 212.644 197.033C214.2 197.033 215.437 197.502 216.356 198.439C217.293 199.358 217.762 200.736 217.762 202.573C217.762 203.716 217.518 204.719 217.031 205.582C216.543 206.444 215.896 207.119 215.09 207.606C214.303 208.094 213.422 208.337 212.447 208.337ZM222.179 195.487C222.179 196.649 222.45 197.577 222.994 198.27C223.556 198.945 224.391 199.283 225.497 199.283C226.097 199.283 226.725 199.095 227.381 198.72C228.056 198.345 228.684 197.736 229.265 196.893C229.115 195.149 228.702 193.827 228.028 192.928C227.353 192.009 226.443 191.55 225.3 191.55C224.438 191.55 223.697 191.915 223.078 192.646C222.479 193.359 222.179 194.305 222.179 195.487ZM224.653 208.337C223.697 208.337 222.853 208.159 222.122 207.803C221.41 207.428 220.81 206.978 220.323 206.453L221.616 204.991C221.991 205.422 222.432 205.769 222.938 206.032C223.463 206.294 224.006 206.425 224.569 206.425C225.412 206.425 226.19 206.182 226.903 205.694C227.615 205.207 228.187 204.401 228.618 203.276C229.068 202.151 229.302 200.633 229.321 198.72C228.759 199.433 228.103 199.995 227.353 200.408C226.603 200.82 225.853 201.026 225.103 201.026C223.566 201.026 222.329 200.567 221.391 199.648C220.473 198.711 220.013 197.324 220.013 195.487C220.013 194.343 220.257 193.34 220.744 192.478C221.232 191.615 221.869 190.94 222.657 190.453C223.463 189.966 224.344 189.722 225.3 189.722C226.481 189.722 227.54 190.041 228.477 190.678C229.415 191.315 230.146 192.271 230.671 193.546C231.215 194.821 231.486 196.424 231.486 198.355C231.486 200.754 231.158 202.685 230.502 204.148C229.865 205.61 229.031 206.678 227.999 207.353C226.968 208.009 225.853 208.337 224.653 208.337ZM233.288 208L238.659 198.467L233.654 189.553H236.241L238.743 194.277C238.987 194.69 239.212 195.102 239.418 195.515C239.643 195.927 239.896 196.405 240.177 196.949H240.29C240.552 196.405 240.777 195.927 240.965 195.515C241.171 195.102 241.387 194.69 241.612 194.277L244.058 189.553H246.533L241.499 198.58L246.87 208H244.283L241.583 203.023C241.34 202.573 241.087 202.114 240.824 201.645C240.581 201.157 240.309 200.633 240.009 200.07H239.896C239.634 200.633 239.381 201.157 239.137 201.645C238.893 202.114 238.659 202.573 238.434 203.023L235.763 208H233.288ZM247.705 208L253.076 198.467L248.071 189.553H250.658L253.16 194.277C253.404 194.69 253.629 195.102 253.835 195.515C254.06 195.927 254.313 196.405 254.595 196.949H254.707C254.969 196.405 255.194 195.927 255.382 195.515C255.588 195.102 255.804 194.69 256.029 194.277L258.475 189.553H260.95L255.916 198.58L261.287 208H258.7L256.001 203.023C255.757 202.573 255.504 202.114 255.241 201.645C254.998 201.157 254.726 200.633 254.426 200.07H254.313C254.051 200.633 253.798 201.157 253.554 201.645C253.31 202.114 253.076 202.573 252.851 203.023L250.18 208H247.705ZM262.122 208L267.493 198.467L262.488 189.553H265.075L267.577 194.277C267.821 194.69 268.046 195.102 268.252 195.515C268.477 195.927 268.73 196.405 269.012 196.949H269.124C269.387 196.405 269.612 195.927 269.799 195.515C270.005 195.102 270.221 194.69 270.446 194.277L272.892 189.553H275.367L270.333 198.58L275.704 208H273.117L270.418 203.023C270.174 202.573 269.921 202.114 269.658 201.645C269.415 201.157 269.143 200.633 268.843 200.07H268.73C268.468 200.633 268.215 201.157 267.971 201.645C267.727 202.114 267.493 202.573 267.268 203.023L264.597 208H262.122ZM276.539 208L281.91 198.467L276.905 189.553H279.492L281.995 194.277C282.238 194.69 282.463 195.102 282.669 195.515C282.894 195.927 283.147 196.405 283.429 196.949H283.541C283.804 196.405 284.029 195.927 284.216 195.515C284.422 195.102 284.638 194.69 284.863 194.277L287.309 189.553H289.784L284.75 198.58L290.121 208H287.534L284.835 203.023C284.591 202.573 284.338 202.114 284.075 201.645C283.832 201.157 283.56 200.633 283.26 200.07H283.147C282.885 200.633 282.632 201.157 282.388 201.645C282.145 202.114 281.91 202.573 281.685 203.023L279.014 208H276.539ZM290.956 208L296.327 198.467L291.322 189.553H293.909L296.412 194.277C296.655 194.69 296.88 195.102 297.087 195.515C297.311 195.927 297.565 196.405 297.846 196.949H297.958C298.221 196.405 298.446 195.927 298.633 195.515C298.839 195.102 299.055 194.69 299.28 194.277L301.726 189.553H304.201L299.167 198.58L304.538 208H301.951L299.252 203.023C299.008 202.573 298.755 202.114 298.493 201.645C298.249 201.157 297.977 200.633 297.677 200.07H297.565C297.302 200.633 297.049 201.157 296.805 201.645C296.562 202.114 296.327 202.573 296.102 203.023L293.431 208H290.956ZM305.373 208L310.744 198.467L305.739 189.553H308.326L310.829 194.277C311.072 194.69 311.297 195.102 311.504 195.515C311.729 195.927 311.982 196.405 312.263 196.949H312.375C312.638 196.405 312.863 195.927 313.05 195.515C313.256 195.102 313.472 194.69 313.697 194.277L316.143 189.553H318.618L313.585 198.58L318.955 208H316.368L313.669 203.023C313.425 202.573 313.172 202.114 312.91 201.645C312.666 201.157 312.394 200.633 312.094 200.07H311.982C311.719 200.633 311.466 201.157 311.222 201.645C310.979 202.114 310.744 202.573 310.519 203.023L307.848 208H305.373ZM319.791 208L325.161 198.467L320.156 189.553H322.743L325.246 194.277C325.49 194.69 325.714 195.102 325.921 195.515C326.146 195.927 326.399 196.405 326.68 196.949H326.792C327.055 196.405 327.28 195.927 327.467 195.515C327.674 195.102 327.889 194.69 328.114 194.277L330.561 189.553H333.035L328.002 198.58L333.373 208H330.785L328.086 203.023C327.842 202.573 327.589 202.114 327.327 201.645C327.083 201.157 326.811 200.633 326.511 200.07H326.399C326.136 200.633 325.883 201.157 325.639 201.645C325.396 202.114 325.161 202.573 324.936 203.023L322.265 208H319.791Z" fill="white"/>
<defs>
<filter id="filter0_dddddd_86_56" x="0" y="69" width="482.874" height="269" filterUnits="userSpaceOnUse" color-interpolation-filters="sRGB">
<feFlood flood-opacity="0" result="BackgroundImageFix"/>
<feColorMatrix in="SourceAlpha" type="matrix" values="0 0 0 0 0 0 0 0 0 0 0 0 0 0 0 0 0 0 127 0" result="hardAlpha"/>
<feOffset dy="2.76726"/>
<feGaussianBlur stdDeviation="1.1069"/>
<feColorMatrix type="matrix" values="0 0 0 0 0 0 0 0 0 0 0 0 0 0 0 0 0 0 0.0196802 0"/>
<feBlend mode="normal" in2="BackgroundImageFix" result="effect1_dropShadow_86_56"/>
<feColorMatrix in="SourceAlpha" type="matrix" values="0 0 0 0 0 0 0 0 0 0 0 0 0 0 0 0 0 0 127 0" result="hardAlpha"/>
<feOffset dy="6.6501"/>
<feGaussianBlur stdDeviation="2.66004"/>
<feColorMatrix type="matrix" values="0 0 0 0 0 0 0 0 0 0 0 0 0 0 0 0 0 0 0.0282725 0"/>
<feBlend mode="normal" in2="effect1_dropShadow_86_56" result="effect2_dropShadow_86_56"/>
<feColorMatrix in="SourceAlpha" type="matrix" values="0 0 0 0 0 0 0 0 0 0 0 0 0 0 0 0 0 0 127 0" result="hardAlpha"/>
<feOffset dy="12.5216"/>
<feGaussianBlur stdDeviation="5.00862"/>
<feColorMatrix type="matrix" values="0 0 0 0 0 0 0 0 0 0 0 0 0 0 0 0 0 0 0.035 0"/>
<feBlend mode="normal" in2="effect2_dropShadow_86_56" result="effect3_dropShadow_86_56"/>
<feColorMatrix in="SourceAlpha" type="matrix" values="0 0 0 0 0 0 0 0 0 0 0 0 0 0 0 0 0 0 127 0" result="hardAlpha"/>
<feOffset dy="22.3363"/>
<feGaussianBlur stdDeviation="8.93452"/>
<feColorMatrix type="matrix" values="0 0 0 0 0 0 0 0 0 0 0 0 0 0 0 0 0 0 0.0417275 0"/>
<feBlend mode="normal" in2="effect3_dropShadow_86_56" result="effect4_dropShadow_86_56"/>
<feColorMatrix in="SourceAlpha" type="matrix" values="0 0 0 0 0 0 0 0 0 0 0 0 0 0 0 0 0 0 127 0" result="hardAlpha"/>
<feOffset dy="41.7776"/>
<feGaussianBlur stdDeviation="16.711"/>
<feColorMatrix type="matrix" values="0 0 0 0 0 0 0 0 0 0 0 0 0 0 0 0 0 0 0.0503198 0"/>
<feBlend mode="normal" in2="effect4_dropShadow_86_56" result="effect5_dropShadow_86_56"/>
<feColorMatrix in="SourceAlpha" type="matrix" values="0 0 0 0 0 0 0 0 0 0 0 0 0 0 0 0 0 0 127 0" result="hardAlpha"/>
<feOffset dy="100"/>
<feGaussianBlur stdDeviation="40"/>
<feColorMatrix type="matrix" values="0 0 0 0 0 0 0 0 0 0 0 0 0 0 0 0 0 0 0.07 0"/>
<feBlend mode="normal" in2="effect5_dropShadow_86_56" result="effect6_dropShadow_86_56"/>
<feBlend mode="normal" in="SourceGraphic" in2="effect6_dropShadow_86_56" result="shape"/>
</filter>
</defs>
</svg>
