<svg width="323" height="89" viewBox="0 0 323 89" fill="none" xmlns="http://www.w3.org/2000/svg">
<path d="M25.2324 80.904C39.1679 80.904 50.4648 69.6071 50.4648 55.6716C50.4648 41.7361 39.1679 30.4392 25.2324 30.4392C11.2969 30.4392 0 41.7361 0 55.6716C0 69.6071 11.2969 80.904 25.2324 80.904Z" fill="#46E0FE"/>
<path opacity="0.7" d="M40.6414 58.5608C54.5769 58.5608 65.8738 47.2639 65.8738 33.3284C65.8738 19.3929 54.5769 8.09601 40.6414 8.09601C26.7059 8.09601 15.409 19.3929 15.409 33.3284C15.409 47.2639 26.7059 58.5608 40.6414 58.5608Z" fill="#1F55D7"/>
<path d="M59.9028 70.5028C63.2005 70.5028 65.8738 67.8295 65.8738 64.5318C65.8738 61.2341 63.2005 58.5608 59.9028 58.5608C56.6051 58.5608 53.9318 61.2341 53.9318 64.5318C53.9318 67.8295 56.6051 70.5028 59.9028 70.5028Z" fill="#FDCC02"/>
<path d="M80.1605 59V22.6364H104.237V28.9751H87.8487V37.6399H102.639V43.9787H87.8487V59H80.1605ZM109.267 59V31.7273H116.83V59H109.267ZM113.066 28.2116C111.942 28.2116 110.977 27.8388 110.172 27.093C109.379 26.3355 108.982 25.4299 108.982 24.3764C108.982 23.3348 109.379 22.4411 110.172 21.6953C110.977 20.9377 111.942 20.5589 113.066 20.5589C114.191 20.5589 115.15 20.9377 115.943 21.6953C116.748 22.4411 117.15 23.3348 117.15 24.3764C117.15 25.4299 116.748 26.3355 115.943 27.093C115.15 27.8388 114.191 28.2116 113.066 28.2116ZM130.453 43.233V59H122.89V31.7273H130.098V36.5391H130.418C131.022 34.9529 132.034 33.6982 133.454 32.7749C134.875 31.8397 136.597 31.3722 138.621 31.3722C140.515 31.3722 142.166 31.7865 143.575 32.6151C144.984 33.4437 146.078 34.6274 146.86 36.1662C147.641 37.6932 148.032 39.5161 148.032 41.6349V59H140.468V42.9844C140.48 41.3153 140.053 40.0133 139.189 39.0781C138.325 38.1312 137.136 37.6577 135.62 37.6577C134.602 37.6577 133.703 37.8767 132.922 38.3146C132.152 38.7526 131.548 39.3918 131.11 40.2322C130.684 41.0608 130.465 42.0611 130.453 43.233Z" fill="white"/>
<path d="M162.32 59L151.916 22.6364H160.314L166.333 47.9027H166.635L173.276 22.6364H180.467L187.09 47.956H187.409L193.428 22.6364H201.827L191.422 59H183.929L177.004 35.2251H176.72L169.813 59H162.32ZM205.8 59V31.7273H213.364V59H205.8ZM209.599 28.2116C208.475 28.2116 207.51 27.8388 206.705 27.093C205.912 26.3355 205.516 25.4299 205.516 24.3764C205.516 23.3348 205.912 22.4411 206.705 21.6953C207.51 20.9377 208.475 20.5589 209.599 20.5589C210.724 20.5589 211.683 20.9377 212.476 21.6953C213.281 22.4411 213.683 23.3348 213.683 24.3764C213.683 25.4299 213.281 26.3355 212.476 27.093C211.683 27.8388 210.724 28.2116 209.599 28.2116ZM242.115 39.5043L235.19 39.9304C235.071 39.3385 234.817 38.8059 234.426 38.3324C234.036 37.8471 233.521 37.4624 232.882 37.1783C232.254 36.8823 231.503 36.7344 230.627 36.7344C229.455 36.7344 228.466 36.983 227.661 37.4801C226.856 37.9654 226.454 38.6165 226.454 39.4332C226.454 40.0843 226.714 40.6347 227.235 41.0845C227.756 41.5343 228.65 41.8954 229.916 42.1676L234.852 43.1619C237.504 43.7064 239.481 44.5824 240.783 45.7898C242.085 46.9972 242.736 48.5833 242.736 50.5483C242.736 52.3357 242.209 53.9041 241.156 55.2536C240.114 56.603 238.682 57.6565 236.859 58.4141C235.048 59.1598 232.959 59.5327 230.591 59.5327C226.981 59.5327 224.104 58.781 221.962 57.2777C219.831 55.7625 218.582 53.7029 218.215 51.0987L225.655 50.7081C225.88 51.8089 226.424 52.6494 227.289 53.2294C228.153 53.7976 229.259 54.0817 230.609 54.0817C231.935 54.0817 233 53.8272 233.805 53.3182C234.622 52.7973 235.036 52.1286 235.048 51.3118C235.036 50.6252 234.746 50.063 234.178 49.625C233.61 49.1752 232.734 48.8319 231.55 48.5952L226.827 47.6541C224.164 47.1214 222.181 46.1982 220.879 44.8842C219.588 43.5703 218.943 41.8954 218.943 39.8594C218.943 38.1075 219.417 36.5982 220.364 35.3317C221.323 34.0651 222.666 33.0885 224.394 32.402C226.134 31.7154 228.17 31.3722 230.502 31.3722C233.947 31.3722 236.658 32.1001 238.634 33.5561C240.623 35.0121 241.783 36.9948 242.115 39.5043ZM259.928 59.5327C257.123 59.5327 254.708 58.9645 252.684 57.8281C250.671 56.6799 249.121 55.0582 248.032 52.9631C246.943 50.8561 246.398 48.3643 246.398 45.4879C246.398 42.6825 246.943 40.2204 248.032 38.1016C249.121 35.9827 250.654 34.3314 252.63 33.1477C254.619 31.964 256.951 31.3722 259.626 31.3722C261.425 31.3722 263.1 31.6622 264.651 32.2422C266.213 32.8104 267.575 33.6686 268.735 34.8168C269.907 35.965 270.818 37.4091 271.469 39.1491C272.12 40.8774 272.446 42.9015 272.446 45.2216V47.299H249.417V42.6115H265.326C265.326 41.5225 265.089 40.5578 264.615 39.7173C264.142 38.8769 263.485 38.2199 262.645 37.7464C261.816 37.2611 260.851 37.0185 259.75 37.0185C258.602 37.0185 257.584 37.2848 256.696 37.8175C255.82 38.3383 255.134 39.0426 254.637 39.9304C254.14 40.8063 253.885 41.7829 253.873 42.8601V47.3168C253.873 48.6662 254.122 49.8321 254.619 50.8146C255.128 51.7971 255.844 52.5547 256.767 53.0874C257.691 53.62 258.786 53.8864 260.052 53.8864C260.893 53.8864 261.662 53.768 262.36 53.5312C263.059 53.2945 263.657 52.9394 264.154 52.4659C264.651 51.9924 265.03 51.4124 265.29 50.7259L272.286 51.1875C271.931 52.8684 271.203 54.3362 270.102 55.5909C269.013 56.8338 267.604 57.8045 265.876 58.5028C264.16 59.1894 262.177 59.5327 259.928 59.5327Z" fill="#0970FA"/>
<path d="M80.9482 79V68.0909H83.2546V72.9009H83.3984L87.3242 68.0909H90.0888L86.0405 72.9755L90.1367 79H87.3775L84.3892 74.5149L83.2546 75.8999V79H80.9482ZM93.5165 74.2699V79H91.2473V70.8182H93.41V72.2617H93.5059C93.687 71.7859 93.9906 71.4094 94.4167 71.1325C94.8429 70.8519 95.3596 70.7116 95.9668 70.7116C96.535 70.7116 97.0304 70.8359 97.4529 71.0845C97.8755 71.3331 98.204 71.6882 98.4384 72.1499C98.6728 72.608 98.79 73.1548 98.79 73.7905V79H96.5208V74.1953C96.5243 73.6946 96.3965 73.304 96.1373 73.0234C95.878 72.7393 95.5211 72.5973 95.0666 72.5973C94.7612 72.5973 94.4913 72.663 94.2569 72.7944C94.0261 72.9258 93.845 73.1175 93.7136 73.3697C93.5858 73.6183 93.5201 73.9183 93.5165 74.2699ZM104.275 79.1598C103.448 79.1598 102.732 78.984 102.128 78.6325C101.528 78.2773 101.065 77.7837 100.738 77.1516C100.411 76.516 100.248 75.7791 100.248 74.9411C100.248 74.0959 100.411 73.3572 100.738 72.7251C101.065 72.0895 101.528 71.5959 102.128 71.2443C102.732 70.8892 103.448 70.7116 104.275 70.7116C105.103 70.7116 105.816 70.8892 106.416 71.2443C107.02 71.5959 107.485 72.0895 107.812 72.7251C108.139 73.3572 108.302 74.0959 108.302 74.9411C108.302 75.7791 108.139 76.516 107.812 77.1516C107.485 77.7837 107.02 78.2773 106.416 78.6325C105.816 78.984 105.103 79.1598 104.275 79.1598ZM104.286 77.402C104.662 77.402 104.976 77.2955 105.229 77.0824C105.481 76.8658 105.671 76.571 105.799 76.1982C105.93 75.8253 105.996 75.4009 105.996 74.9251C105.996 74.4492 105.93 74.0249 105.799 73.652C105.671 73.2791 105.481 72.9844 105.229 72.7678C104.976 72.5511 104.662 72.4428 104.286 72.4428C103.906 72.4428 103.586 72.5511 103.327 72.7678C103.071 72.9844 102.878 73.2791 102.746 73.652C102.619 74.0249 102.555 74.4492 102.555 74.9251C102.555 75.4009 102.619 75.8253 102.746 76.1982C102.878 76.571 103.071 76.8658 103.327 77.0824C103.586 77.2955 103.906 77.402 104.286 77.402ZM111.187 79L108.96 70.8182H111.256L112.524 76.3153H112.598L113.919 70.8182H116.172L117.515 76.2834H117.584L118.83 70.8182H121.121L118.9 79H116.497L115.091 73.8544H114.99L113.584 79H111.187ZM127.204 82.0682C126.916 82.0682 126.646 82.0451 126.394 81.9989C126.146 81.9563 125.94 81.9013 125.776 81.8338L126.288 80.1399C126.554 80.2216 126.794 80.266 127.007 80.2731C127.223 80.2802 127.41 80.2305 127.566 80.1239C127.726 80.0174 127.856 79.8363 127.955 79.5806L128.088 79.2344L125.153 70.8182H127.54L129.233 76.8267H129.319L131.028 70.8182H133.431L130.251 79.8842C130.098 80.3246 129.89 80.7081 129.628 81.0348C129.368 81.3651 129.04 81.619 128.642 81.7965C128.244 81.9776 127.765 82.0682 127.204 82.0682ZM138.025 79.1598C137.198 79.1598 136.482 78.984 135.878 78.6325C135.278 78.2773 134.815 77.7837 134.488 77.1516C134.161 76.516 133.998 75.7791 133.998 74.9411C133.998 74.0959 134.161 73.3572 134.488 72.7251C134.815 72.0895 135.278 71.5959 135.878 71.2443C136.482 70.8892 137.198 70.7116 138.025 70.7116C138.853 70.7116 139.566 70.8892 140.166 71.2443C140.77 71.5959 141.235 72.0895 141.562 72.7251C141.889 73.3572 142.052 74.0959 142.052 74.9411C142.052 75.7791 141.889 76.516 141.562 77.1516C141.235 77.7837 140.77 78.2773 140.166 78.6325C139.566 78.984 138.853 79.1598 138.025 79.1598ZM138.036 77.402C138.412 77.402 138.726 77.2955 138.979 77.0824C139.231 76.8658 139.421 76.571 139.549 76.1982C139.68 75.8253 139.746 75.4009 139.746 74.9251C139.746 74.4492 139.68 74.0249 139.549 73.652C139.421 73.2791 139.231 72.9844 138.979 72.7678C138.726 72.5511 138.412 72.4428 138.036 72.4428C137.656 72.4428 137.336 72.5511 137.077 72.7678C136.821 72.9844 136.628 73.2791 136.496 73.652C136.369 74.0249 136.305 74.4492 136.305 74.9251C136.305 75.4009 136.369 75.8253 136.496 76.1982C136.628 76.571 136.821 76.8658 137.077 77.0824C137.336 77.2955 137.656 77.402 138.036 77.402ZM148.774 75.5163V70.8182H151.044V79H148.865V77.5138H148.78C148.595 77.9933 148.288 78.3786 147.858 78.6697C147.432 78.9609 146.912 79.1065 146.297 79.1065C145.751 79.1065 145.269 78.9822 144.854 78.7337C144.438 78.4851 144.114 78.1317 143.879 77.6737C143.648 77.2156 143.531 76.6669 143.528 76.0277V70.8182H145.797V75.6229C145.8 76.1058 145.93 76.4876 146.186 76.7681C146.441 77.0487 146.784 77.1889 147.214 77.1889C147.487 77.1889 147.743 77.1268 147.981 77.0025C148.219 76.8746 148.41 76.6864 148.556 76.4379C148.705 76.1893 148.778 75.8821 148.774 75.5163ZM152.859 79V70.8182H155.059V72.2457H155.144C155.293 71.7379 155.543 71.3544 155.895 71.0952C156.246 70.8324 156.651 70.701 157.109 70.701C157.223 70.701 157.346 70.7081 157.477 70.7223C157.608 70.7365 157.724 70.756 157.823 70.7809V72.7944C157.717 72.7624 157.569 72.734 157.381 72.7092C157.193 72.6843 157.021 72.6719 156.864 72.6719C156.531 72.6719 156.232 72.7447 155.969 72.8903C155.71 73.0323 155.504 73.2312 155.352 73.4869C155.202 73.7425 155.128 74.0373 155.128 74.3711V79H152.859ZM162.468 79V70.8182H164.631V72.2617H164.727C164.897 71.7823 165.181 71.4041 165.579 71.1271C165.977 70.8501 166.452 70.7116 167.006 70.7116C167.567 70.7116 168.045 70.8519 168.439 71.1325C168.833 71.4094 169.096 71.7859 169.228 72.2617H169.313C169.48 71.793 169.782 71.4183 170.218 71.1378C170.659 70.8537 171.179 70.7116 171.779 70.7116C172.543 70.7116 173.162 70.9549 173.638 71.4414C174.118 71.9244 174.357 72.6097 174.357 73.4975V79H172.093V73.945C172.093 73.4904 171.973 73.1495 171.731 72.9222C171.49 72.695 171.188 72.5813 170.826 72.5813C170.414 72.5813 170.092 72.7127 169.862 72.9755C169.631 73.2347 169.515 73.5774 169.515 74.0036V79H167.315V73.897C167.315 73.4957 167.2 73.1761 166.969 72.9382C166.742 72.7003 166.442 72.5813 166.069 72.5813C165.817 72.5813 165.589 72.6452 165.387 72.7731C165.188 72.8974 165.03 73.0732 164.913 73.3004C164.796 73.5241 164.737 73.7869 164.737 74.0888V79H162.468ZM179.846 79.1598C179.019 79.1598 178.303 78.984 177.7 78.6325C177.1 78.2773 176.636 77.7837 176.309 77.1516C175.983 76.516 175.819 75.7791 175.819 74.9411C175.819 74.0959 175.983 73.3572 176.309 72.7251C176.636 72.0895 177.1 71.5959 177.7 71.2443C178.303 70.8892 179.019 70.7116 179.846 70.7116C180.674 70.7116 181.388 70.8892 181.988 71.2443C182.591 71.5959 183.057 72.0895 183.383 72.7251C183.71 73.3572 183.873 74.0959 183.873 74.9411C183.873 75.7791 183.71 76.516 183.383 77.1516C183.057 77.7837 182.591 78.2773 181.988 78.6325C181.388 78.984 180.674 79.1598 179.846 79.1598ZM179.857 77.402C180.233 77.402 180.548 77.2955 180.8 77.0824C181.052 76.8658 181.242 76.571 181.37 76.1982C181.501 75.8253 181.567 75.4009 181.567 74.9251C181.567 74.4492 181.501 74.0249 181.37 73.652C181.242 73.2791 181.052 72.9844 180.8 72.7678C180.548 72.5511 180.233 72.4428 179.857 72.4428C179.477 72.4428 179.157 72.5511 178.898 72.7678C178.643 72.9844 178.449 73.2791 178.318 73.652C178.19 74.0249 178.126 74.4492 178.126 74.9251C178.126 75.4009 178.19 75.8253 178.318 76.1982C178.449 76.571 178.643 76.8658 178.898 77.0824C179.157 77.2955 179.477 77.402 179.857 77.402ZM187.618 74.2699V79H185.349V70.8182H187.512V72.2617H187.607C187.789 71.7859 188.092 71.4094 188.518 71.1325C188.944 70.8519 189.461 70.7116 190.068 70.7116C190.637 70.7116 191.132 70.8359 191.555 71.0845C191.977 71.3331 192.306 71.6882 192.54 72.1499C192.774 72.608 192.892 73.1548 192.892 73.7905V79H190.622V74.1953C190.626 73.6946 190.498 73.304 190.239 73.0234C189.98 72.7393 189.623 72.5973 189.168 72.5973C188.863 72.5973 188.593 72.663 188.358 72.7944C188.128 72.9258 187.947 73.1175 187.815 73.3697C187.687 73.6183 187.622 73.9183 187.618 74.2699ZM198.409 79.1598C197.567 79.1598 196.843 78.9893 196.235 78.6484C195.632 78.304 195.166 77.8175 194.84 77.1889C194.513 76.5568 194.35 75.8093 194.35 74.9464C194.35 74.1048 194.513 73.3661 194.84 72.7305C195.166 72.0948 195.626 71.5994 196.219 71.2443C196.816 70.8892 197.516 70.7116 198.318 70.7116C198.858 70.7116 199.36 70.7987 199.826 70.9727C200.294 71.1431 200.703 71.4006 201.051 71.745C201.402 72.0895 201.676 72.5227 201.871 73.0447C202.066 73.5632 202.164 74.1705 202.164 74.8665V75.4897H195.255V74.0835H200.028C200.028 73.7567 199.957 73.4673 199.815 73.2152C199.673 72.9631 199.476 72.766 199.224 72.6239C198.975 72.4783 198.686 72.4055 198.355 72.4055C198.011 72.4055 197.706 72.4854 197.439 72.6452C197.176 72.8015 196.97 73.0128 196.821 73.2791C196.672 73.5419 196.596 73.8349 196.592 74.158V75.495C196.592 75.8999 196.667 76.2496 196.816 76.5444C196.969 76.8391 197.184 77.0664 197.46 77.2262C197.737 77.386 198.066 77.4659 198.446 77.4659C198.698 77.4659 198.929 77.4304 199.138 77.3594C199.348 77.2884 199.527 77.1818 199.676 77.0398C199.826 76.8977 199.939 76.7237 200.017 76.5178L202.116 76.6562C202.009 77.1605 201.791 77.6009 201.461 77.9773C201.134 78.3501 200.712 78.6413 200.193 78.8509C199.678 79.0568 199.083 79.1598 198.409 79.1598ZM204.826 82.0682C204.538 82.0682 204.268 82.0451 204.016 81.9989C203.768 81.9563 203.562 81.9013 203.398 81.8338L203.91 80.1399C204.176 80.2216 204.416 80.266 204.629 80.2731C204.846 80.2802 205.032 80.2305 205.188 80.1239C205.348 80.0174 205.478 79.8363 205.577 79.5806L205.71 79.2344L202.775 70.8182H205.162L206.855 76.8267H206.941L208.651 70.8182H211.053L207.873 79.8842C207.72 80.3246 207.512 80.7081 207.25 81.0348C206.99 81.3651 206.662 81.619 206.264 81.7965C205.866 81.9776 205.387 82.0682 204.826 82.0682Z" fill="white"/>
</svg>
