<svg width="66" height="73" viewBox="0 0 66 73" fill="none" xmlns="http://www.w3.org/2000/svg">
<path d="M25.2324 72.904C39.1679 72.904 50.4648 61.6071 50.4648 47.6716C50.4648 33.7361 39.1679 22.4392 25.2324 22.4392C11.2969 22.4392 0 33.7361 0 47.6716C0 61.6071 11.2969 72.904 25.2324 72.904Z" fill="#46E0FE"/>
<path opacity="0.7" d="M40.6414 50.5608C54.5769 50.5608 65.8738 39.2639 65.8738 25.3284C65.8738 11.3929 54.5769 0.0960083 40.6414 0.0960083C26.7059 0.0960083 15.409 11.3929 15.409 25.3284C15.409 39.2639 26.7059 50.5608 40.6414 50.5608Z" fill="#1F55D7"/>
<path d="M59.9028 62.5028C63.2005 62.5028 65.8738 59.8295 65.8738 56.5318C65.8738 53.2341 63.2005 50.5608 59.9028 50.5608C56.6051 50.5608 53.9318 53.2341 53.9318 56.5318C53.9318 59.8295 56.6051 62.5028 59.9028 62.5028Z" fill="#FDCC02"/>
</svg>
